# xmcd
# 
# Track frame offsets:
#     150
#     12038
#     21429
#     37610
#     54878
#     67092
#     76606
#     90171
#     103491
#     120366
#     139366
#     155545
#     174702
#     188068
# 
# Disc length: 2711
# 
# Revision: 2
# Processed by: cddbd v1.5.2PL0 Copyright (c) Steve Scherf et al.
# Submitted via: fre:ac v1.0.31
# 
DISCID=a60a950e
DTITLE=Various Artist - RCA SWING!100 CD6 スクリーン
DYEAR=2006
DGENRE=Jazz
TTITLE0=ヘンリー・マンシーニ楽団 - ピンク・パンサーのテーマ
TTITLE1=ヘンリー・マンシーニ楽団 - ピーター・ガン
TTITLE2=ヘンリー・マンシーニ楽団 - 時の過ぎゆくままに
TTITLE3=ヘンリー・マンシーニ楽団 - エヴァーグリーン
TTITLE4=ヘンリー・マンシーニ楽団 - ムーン・リヴァー
TTITLE5=ヘンリー・マンシーニ楽団 - 酒とバラの日々
TTITLE6=ペリー・コモ with ミッチェル・エイヤーズ・オーケストラ - スマイル
TTITLE7=ペリー・コモ with ミッチェル・エイヤーズ・オーケストラ - 私のお気に入り
TTITLE8=ペリー・コモ with ニック・ペリート・オーケストラ - いそしぎ
TTITLE9=リナ・ホーン with ロバート・ファーノン・オーケストラ - いつか王子様が
TTITLE10=ヘレン・オコネル with マリオン・エヴァンス・オーケストラ - アマポーラ
TTITLE11=フィル・ウッズ with ミシェル・ルグラン楽団 - 風のささやき
TTITLE12=フィル・ウッズ with ミシェル・ルグラン楽団 - おもいでの夏
TTITLE13=フィル・ウッズ with ミシェル・ルグラン楽団 - アイ・ワズ・ボーン・イン・ラブ・ウィズ・ユー
EXTD=YEAR: 2006
EXTT0=
EXTT1=
EXTT2=
EXTT3=
EXTT4=
EXTT5=
EXTT6=
EXTT7=
EXTT8=
EXTT9=
EXTT10=
EXTT11=
EXTT12=
EXTT13=
PLAYORDER=
